# xmcd CD database file
#
# Track frame offsets:
#	150
#	12434
#	24415
#	37010
#	50217
#	62851
#	74872
#	87467
#	100322
#	113010
#	125570
#	138157
#	151160
#	164184
#	176334
#
# Disc length: 2507 seconds
#
# Revision: 0
# Processed by: cddbd v1.5.2PL0 Copyright (c) Steve Scherf et al.
# Submitted via: CDex 1.51
#
DISCID=da09c90f
DTITLE=Hank Williams - The Very Best of Hank Williams
DYEAR=1900
DGENRE=Country
TTITLE0=Your Cheatin Heart
TTITLE1=I'm Satisfied with You
TTITLE2=Fly Trouble
TTITLE3=I'm a Long Gone Daddy
TTITLE4=My Sweet Love Ain't Around
TTITLE5=A Mansion On the Hill
TTITLE6=Half As Much
TTITLE7=Rootie Tootie
TTITLE8=Love Sick Blues
TTITLE9=Lost Highway
TTITLE10=(Last Night) I Heard You Cryin' In Your Sleep
TTITLE11=Pan American
TTITLE12=There'll be no Teardrops Tonight
TTITLE13=Take These Chains From My Heart
TTITLE14=Kaw-Liga
EXTD=
EXTT0=
EXTT1=
EXTT2=
EXTT3=
EXTT4=
EXTT5=
EXTT6=
EXTT7=
EXTT8=
EXTT9=
EXTT10=
EXTT11=
EXTT12=
EXTT13=
EXTT14=
PLAYORDER=
